<svg width="71" height="70" viewBox="0 0 71 70" fill="none" xmlns="http://www.w3.org/2000/svg">
<g filter="url(#filter0_d_198_218)">
<g clip-path="url(#clip0_198_218)">
<path d="M56.3397 1H14.4189C8.66471 1 4 5.70842 4 11.5165V52.2465C4 58.0547 8.66471 62.7631 14.4189 62.7631H56.3397C62.0939 62.7631 66.7586 58.0547 66.7586 52.2465V11.5165C66.7586 5.70842 62.0939 1 56.3397 1Z" fill="#330000"/>
<path d="M34.4119 38.0653H24.6868L22.708 44.2696C22.681 44.3827 22.6158 44.4829 22.5236 44.5527C22.4314 44.6225 22.3179 44.6577 22.2027 44.6521H17.2769C16.9962 44.6521 16.8979 44.4962 16.9822 44.1844L25.4024 19.7074C25.4865 19.4525 25.5708 19.1622 25.6549 18.8363C25.7652 18.2692 25.8216 17.6931 25.8233 17.1153C25.8176 17.0749 25.8213 17.0337 25.834 16.995C25.8468 16.9562 25.8684 16.921 25.897 16.8922C25.9255 16.8633 25.9604 16.8415 25.9988 16.8286C26.0371 16.8156 26.078 16.8119 26.118 16.8177H32.8121C33.0082 16.8177 33.1205 16.8887 33.1489 17.0305L42.7056 44.227C42.79 44.5106 42.7056 44.6524 42.4531 44.6521H36.9799C36.8859 44.6626 36.7913 44.6383 36.7139 44.5835C36.6364 44.5288 36.5813 44.4474 36.559 44.3547L34.4119 38.0653ZM26.2023 32.711H32.8543L32.7594 32.395L32.6071 31.8947L32.4985 31.5433L32.3252 30.99L31.9568 29.8253L31.6327 28.7927L30.7911 26.1029C30.5816 25.4343 30.3806 24.763 30.188 24.0892L30.034 23.5423L29.8541 22.8957L29.5795 21.8936L29.5281 21.7048H29.4861C29.2755 22.7248 29.019 23.7346 28.7173 24.7311L28.0927 26.7591L27.749 27.8796L27.4021 29.0139C27.3393 29.2188 27.2771 29.4214 27.2146 29.6216L27.0282 30.215L26.8429 30.7945L26.6586 31.3597L26.4752 31.9108C26.4144 32.0921 26.3536 32.271 26.293 32.4477L26.2023 32.711ZM48.3887 21.3222C47.9593 21.3396 47.5312 21.2653 47.1322 21.1042C46.7332 20.9431 46.3723 20.6989 46.0733 20.3873C45.775 20.0623 45.5434 19.681 45.3916 19.2653C45.2399 18.8496 45.171 18.4077 45.189 17.9651C45.1738 17.5269 45.2502 17.0903 45.4135 16.684C45.5767 16.2777 45.823 15.9106 46.1363 15.6069C46.7406 15.0213 47.5454 14.6937 48.3831 14.6921L48.4728 14.6931C49.4833 14.6931 50.2764 14.9974 50.8518 15.6066C51.1422 15.9232 51.3679 16.2944 51.5159 16.6991C51.664 17.1038 51.7316 17.534 51.7147 17.9651C51.7323 18.4095 51.6613 18.8529 51.5058 19.2691C51.3504 19.6853 51.1136 20.0656 50.8096 20.3876C50.5027 20.6929 50.1384 20.9332 49.7381 21.0943C49.3377 21.2553 48.9096 21.3339 48.4787 21.3254L48.3887 21.3222ZM45.4837 44.227V23.9145C45.4837 23.6596 45.5955 23.5319 45.8205 23.5319H50.9991C51.2234 23.5319 51.3357 23.6594 51.3359 23.9145V44.227C51.3359 44.5106 51.2237 44.6524 50.9991 44.6521H45.8627C45.6234 44.6521 45.4974 44.5249 45.4849 44.2706L45.4837 44.227Z" fill="#FF9A00"/>
<g clip-path="url(#clip1_198_218)">
<path d="M54.8042 1.48291H14.0581C8.46514 1.48291 3.93115 6.20183 3.93115 12.0229V52.8437C3.93115 58.6648 8.46514 63.3837 14.0581 63.3837H54.8042C60.3972 63.3837 64.9312 58.6648 64.9312 52.8437V12.0229C64.9312 6.20183 60.3972 1.48291 54.8042 1.48291Z" fill="#330000"/>
<path d="M33.4909 38.6308H24.0383L22.1149 44.8489C22.0888 44.9624 22.0254 45.0627 21.9357 45.1327C21.8461 45.2027 21.7358 45.2379 21.6238 45.2324H16.836C16.5632 45.2324 16.4677 45.0761 16.5496 44.7636L24.7339 20.232C24.8156 19.9765 24.8976 19.6856 24.9793 19.359C25.0865 18.7906 25.1413 18.2132 25.143 17.6342C25.1374 17.5937 25.141 17.5524 25.1534 17.5135C25.1658 17.4747 25.1868 17.4394 25.2146 17.4105C25.2424 17.3815 25.2762 17.3597 25.3135 17.3468C25.3508 17.3338 25.3905 17.3301 25.4294 17.3358H31.9359C32.1266 17.3358 32.2357 17.407 32.2633 17.5491L41.5522 44.8063C41.6342 45.0905 41.5522 45.2326 41.3068 45.2324H35.9869C35.8956 45.2429 35.8037 45.2185 35.7284 45.1636C35.6531 45.1087 35.5996 45.0272 35.5778 44.9343L33.4909 38.6308ZM25.5114 33.2646H31.9769L31.8847 32.9479L31.7367 32.4465L31.6312 32.0943L31.4627 31.5398L31.1046 30.3724L30.7896 29.3375L29.9715 26.6418C29.7679 25.9716 29.5725 25.2989 29.3854 24.6236L29.2357 24.0755L29.0608 23.4274L28.794 22.423L28.7439 22.2338H28.7032C28.4984 23.2561 28.2491 24.2682 27.9559 25.2669L27.3488 27.2995L27.0147 28.4224L26.6775 29.5592C26.6165 29.7646 26.556 29.9677 26.4953 30.1683L26.3142 30.763L26.134 31.3439L25.9548 31.9103L25.7766 32.4626C25.7175 32.6444 25.6584 32.8237 25.5996 33.0007L25.5114 33.2646ZM47.0761 21.8504C46.6587 21.8679 46.2425 21.7934 45.8547 21.632C45.4669 21.4705 45.1162 21.2257 44.8255 20.9135C44.5356 20.5877 44.3105 20.2055 44.163 19.7889C44.0155 19.3723 43.9485 18.9294 43.966 18.4858C43.9512 18.0466 44.0255 17.6091 44.1842 17.2019C44.3428 16.7946 44.5822 16.4268 44.8867 16.1224C45.4741 15.5355 46.2564 15.2071 47.0706 15.2055L47.1578 15.2065C48.14 15.2065 48.9108 15.5115 49.4701 16.1221C49.7524 16.4394 49.9717 16.8114 50.1156 17.217C50.2596 17.6226 50.3252 18.0538 50.3088 18.4858C50.326 18.9312 50.257 19.3756 50.1058 19.7927C49.9547 20.2098 49.7246 20.591 49.4291 20.9137C49.1308 21.2198 48.7767 21.4606 48.3876 21.622C47.9985 21.7834 47.5823 21.8622 47.1635 21.8536L47.0761 21.8504ZM44.2524 44.8063V24.4485C44.2524 24.193 44.3611 24.0651 44.5798 24.0651H49.6133C49.8313 24.0651 49.9405 24.1928 49.9407 24.4485V44.8063C49.9407 45.0905 49.8316 45.2326 49.6133 45.2324H44.6208C44.3883 45.2324 44.2658 45.1049 44.2536 44.8499L44.2524 44.8063Z" fill="#FF9A00"/>
</g>
</g>
</g>
<defs>
<filter id="filter0_d_198_218" x="0" y="0" width="70.7587" height="69.8621" filterUnits="userSpaceOnUse" color-interpolation-filters="sRGB">
<feFlood flood-opacity="0" result="BackgroundImageFix"/>
<feColorMatrix in="SourceAlpha" type="matrix" values="0 0 0 0 0 0 0 0 0 0 0 0 0 0 0 0 0 0 127 0" result="hardAlpha"/>
<feOffset dy="3"/>
<feGaussianBlur stdDeviation="2"/>
<feComposite in2="hardAlpha" operator="out"/>
<feColorMatrix type="matrix" values="0 0 0 0 0 0 0 0 0 0 0 0 0 0 0 0 0 0 0.2 0"/>
<feBlend mode="normal" in2="BackgroundImageFix" result="effect1_dropShadow_198_218"/>
<feBlend mode="normal" in="SourceGraphic" in2="effect1_dropShadow_198_218" result="shape"/>
</filter>
<clipPath id="clip0_198_218">
<rect x="4" y="1" width="62.7586" height="61.8621" rx="20" fill="white"/>
</clipPath>
<clipPath id="clip1_198_218">
<rect width="61" height="62" fill="white" transform="translate(3.93115 1.48291)"/>
</clipPath>
</defs>
</svg>
