<svg width="71" height="70" viewBox="0 0 71 70" fill="none" xmlns="http://www.w3.org/2000/svg">
<g filter="url(#filter0_d_198_212)">
<g clip-path="url(#clip0_198_212)">
<path d="M56.3397 1H14.4189C8.66471 1 4 5.70842 4 11.5165V52.2465C4 58.0547 8.66471 62.7631 14.4189 62.7631H56.3397C62.0939 62.7631 66.7586 58.0547 66.7586 52.2465V11.5165C66.7586 5.70842 62.0939 1 56.3397 1Z" fill="#330000"/>
<path d="M34.4119 38.0653H24.6868L22.708 44.2696C22.681 44.3827 22.6158 44.4829 22.5236 44.5527C22.4314 44.6225 22.3179 44.6577 22.2027 44.6521H17.2769C16.9962 44.6521 16.8979 44.4962 16.9822 44.1844L25.4024 19.7074C25.4865 19.4525 25.5708 19.1622 25.6549 18.8363C25.7652 18.2692 25.8216 17.6931 25.8233 17.1153C25.8176 17.0749 25.8213 17.0337 25.834 16.995C25.8468 16.9562 25.8684 16.921 25.897 16.8922C25.9255 16.8633 25.9604 16.8415 25.9988 16.8286C26.0371 16.8156 26.078 16.8119 26.118 16.8177H32.8121C33.0082 16.8177 33.1205 16.8887 33.1489 17.0305L42.7056 44.227C42.79 44.5106 42.7056 44.6524 42.4531 44.6521H36.9799C36.8859 44.6626 36.7913 44.6383 36.7139 44.5835C36.6364 44.5288 36.5813 44.4474 36.559 44.3547L34.4119 38.0653ZM26.2023 32.711H32.8543L32.7594 32.395L32.6071 31.8947L32.4985 31.5433L32.3252 30.99L31.9568 29.8253L31.6327 28.7927L30.7911 26.1029C30.5816 25.4343 30.3806 24.763 30.188 24.0892L30.034 23.5423L29.8541 22.8957L29.5795 21.8936L29.5281 21.7048H29.4861C29.2755 22.7248 29.019 23.7346 28.7173 24.7311L28.0927 26.7591L27.749 27.8796L27.4021 29.0139C27.3393 29.2188 27.2771 29.4214 27.2146 29.6216L27.0282 30.215L26.8429 30.7945L26.6586 31.3597L26.4752 31.9108C26.4144 32.0921 26.3536 32.271 26.293 32.4477L26.2023 32.711ZM48.3887 21.3222C47.9593 21.3396 47.5312 21.2653 47.1322 21.1042C46.7332 20.9431 46.3723 20.6989 46.0733 20.3873C45.775 20.0623 45.5434 19.681 45.3916 19.2653C45.2399 18.8496 45.171 18.4077 45.189 17.9651C45.1738 17.5269 45.2502 17.0903 45.4135 16.684C45.5767 16.2777 45.823 15.9106 46.1363 15.6069C46.7406 15.0213 47.5454 14.6937 48.3831 14.6921L48.4728 14.6931C49.4833 14.6931 50.2764 14.9974 50.8518 15.6066C51.1422 15.9232 51.3679 16.2944 51.5159 16.6991C51.664 17.1038 51.7316 17.534 51.7147 17.9651C51.7323 18.4095 51.6613 18.8529 51.5058 19.2691C51.3504 19.6853 51.1136 20.0656 50.8096 20.3876C50.5027 20.6929 50.1384 20.9332 49.7381 21.0943C49.3377 21.2553 48.9096 21.3339 48.4787 21.3254L48.3887 21.3222ZM45.4837 44.227V23.9145C45.4837 23.6596 45.5955 23.5319 45.8205 23.5319H50.9991C51.2234 23.5319 51.3357 23.6594 51.3359 23.9145V44.227C51.3359 44.5106 51.2237 44.6524 50.9991 44.6521H45.8627C45.6234 44.6521 45.4974 44.5249 45.4849 44.2706L45.4837 44.227Z" fill="#FF9A00"/>
<g clip-path="url(#clip1_198_212)">
<path d="M55.6382 1.48291H14.2241C8.53947 1.48291 3.93115 6.12572 3.93115 11.8529V52.0153C3.93115 57.7425 8.53947 62.3853 14.2241 62.3853H55.6382C61.3228 62.3853 65.9312 57.7425 65.9312 52.0153V11.8529C65.9312 6.12572 61.3228 1.48291 55.6382 1.48291Z" fill="#001E36"/>
<path d="M36.4916 44.5267H20.1045C19.8269 44.5267 19.6884 44.373 19.6886 44.0655V17.4576C19.6814 17.4064 19.686 17.3541 19.7022 17.305C19.7185 17.2559 19.7458 17.2113 19.7821 17.1747C19.8184 17.1381 19.8627 17.1105 19.9114 17.0942C19.9601 17.0778 20.012 17.0731 20.0628 17.0804H25.1371C25.1767 17.0747 25.217 17.0785 25.2549 17.0912C25.2928 17.104 25.3272 17.1255 25.3554 17.1539C25.3836 17.1824 25.4049 17.2171 25.4176 17.2553C25.4302 17.2934 25.4339 17.3341 25.4282 17.3739V39.2473H37.3649C37.6144 39.2473 37.7115 39.3729 37.6563 39.6243L36.9074 44.1497C36.9057 44.2115 36.8897 44.272 36.8609 44.3265C36.832 44.3811 36.791 44.4281 36.7411 44.464C36.664 44.5044 36.5785 44.5259 36.4916 44.5269V44.5267ZM40.6088 23.7008H45.1423C45.3952 23.7033 45.616 23.8741 45.6829 24.12C45.7819 24.3035 45.8522 24.5014 45.8912 24.7066C45.949 24.9762 45.9904 25.249 46.0156 25.5237C46.043 25.817 46.0568 26.1313 46.0573 26.4666C46.8347 25.5545 47.7723 24.7945 48.8231 24.2247C50.0035 23.5817 51.3288 23.2569 52.6705 23.2819C52.7213 23.2746 52.7731 23.2793 52.8219 23.2957C52.8706 23.312 52.9149 23.3396 52.9512 23.3762C52.9875 23.4128 53.0148 23.4574 53.031 23.5065C53.0473 23.5556 53.0519 23.6079 53.0446 23.6591V28.7294C53.0446 28.9251 52.9061 29.0227 52.6288 29.0227C50.9534 28.9182 49.2775 29.2199 47.7417 29.9026C47.2198 30.13 46.7466 30.4573 46.3484 30.8664V44.1497C46.3484 44.401 46.2375 44.5267 46.0156 44.5267H40.983C40.9265 44.5349 40.8689 44.5297 40.8147 44.5115C40.7606 44.4933 40.7114 44.4627 40.671 44.422C40.6307 44.3814 40.6003 44.3318 40.5822 44.2773C40.5642 44.2227 40.559 44.1647 40.5671 44.1078V29.693C40.5671 29.3421 40.565 28.9795 40.5604 28.6055L40.5519 28.036C40.5502 27.9396 40.5485 27.8425 40.5463 27.7446C40.5357 27.2351 40.5214 26.7257 40.5032 26.2165L40.4838 25.7124C40.4655 25.1367 40.41 24.5628 40.3177 23.9943C40.3079 23.9564 40.3075 23.9166 40.3165 23.8784C40.3255 23.8402 40.3436 23.8048 40.3693 23.7753C40.395 23.7458 40.4274 23.7231 40.4638 23.7091C40.5002 23.695 40.5394 23.6902 40.578 23.695L40.6088 23.7008Z" fill="#31A8FF"/>
</g>
</g>
</g>
<defs>
<filter id="filter0_d_198_212" x="0" y="0" width="70.7587" height="69.8621" filterUnits="userSpaceOnUse" color-interpolation-filters="sRGB">
<feFlood flood-opacity="0" result="BackgroundImageFix"/>
<feColorMatrix in="SourceAlpha" type="matrix" values="0 0 0 0 0 0 0 0 0 0 0 0 0 0 0 0 0 0 127 0" result="hardAlpha"/>
<feOffset dy="3"/>
<feGaussianBlur stdDeviation="2"/>
<feComposite in2="hardAlpha" operator="out"/>
<feColorMatrix type="matrix" values="0 0 0 0 0 0 0 0 0 0 0 0 0 0 0 0 0 0 0.2 0"/>
<feBlend mode="normal" in2="BackgroundImageFix" result="effect1_dropShadow_198_212"/>
<feBlend mode="normal" in="SourceGraphic" in2="effect1_dropShadow_198_212" result="shape"/>
</filter>
<clipPath id="clip0_198_212">
<rect x="4" y="1" width="62.7586" height="61.8621" rx="20" fill="white"/>
</clipPath>
<clipPath id="clip1_198_212">
<rect width="62" height="61" fill="white" transform="translate(3.93115 1.48291)"/>
</clipPath>
</defs>
</svg>
