<svg width="71" height="70" viewBox="0 0 71 70" fill="none" xmlns="http://www.w3.org/2000/svg">
<g filter="url(#filter0_d_198_206)">
<g clip-path="url(#clip0_198_206)">
<path d="M56.3397 1H14.4189C8.66471 1 4 5.70842 4 11.5165V52.2465C4 58.0547 8.66471 62.7631 14.4189 62.7631H56.3397C62.0939 62.7631 66.7586 58.0547 66.7586 52.2465V11.5165C66.7586 5.70842 62.0939 1 56.3397 1Z" fill="#330000"/>
<path d="M34.4119 38.0653H24.6868L22.708 44.2695C22.681 44.3827 22.6158 44.4828 22.5236 44.5527C22.4314 44.6225 22.3179 44.6577 22.2027 44.6521H17.2769C16.9962 44.6521 16.8979 44.4962 16.9822 44.1844L25.4024 19.7073C25.4865 19.4525 25.5708 19.1622 25.6549 18.8363C25.7652 18.2692 25.8216 17.6931 25.8233 17.1153C25.8176 17.0749 25.8213 17.0337 25.834 16.9949C25.8468 16.9562 25.8684 16.921 25.897 16.8921C25.9255 16.8632 25.9604 16.8415 25.9988 16.8285C26.0371 16.8156 26.078 16.8119 26.118 16.8176H32.8121C33.0082 16.8176 33.1205 16.8886 33.1489 17.0304L42.7056 44.227C42.79 44.5105 42.7056 44.6523 42.4531 44.6521H36.9799C36.8859 44.6626 36.7913 44.6382 36.7139 44.5835C36.6364 44.5287 36.5813 44.4474 36.559 44.3547L34.4119 38.0653ZM26.2023 32.711H32.8543L32.7594 32.395L32.6071 31.8946L32.4985 31.5433L32.3252 30.99L31.9568 29.8252L31.6327 28.7926L30.7911 26.1029C30.5816 25.4342 30.3806 24.7629 30.188 24.0891L30.034 23.5423L29.8541 22.8957L29.5795 21.8935L29.5281 21.7047H29.4861C29.2755 22.7247 29.019 23.7346 28.7173 24.731L28.0927 26.7591L27.749 27.8796L27.4021 29.0139C27.3393 29.2187 27.2771 29.4214 27.2146 29.6216L27.0282 30.215L26.8429 30.7945L26.6586 31.3597L26.4752 31.9107C26.4144 32.0921 26.3536 32.271 26.293 32.4477L26.2023 32.711ZM48.3887 21.3222C47.9593 21.3396 47.5312 21.2653 47.1322 21.1042C46.7332 20.9431 46.3723 20.6988 46.0733 20.3873C45.775 20.0623 45.5434 19.681 45.3916 19.2653C45.2399 18.8496 45.171 18.4077 45.189 17.965C45.1738 17.5268 45.2502 17.0903 45.4135 16.684C45.5767 16.2776 45.823 15.9106 46.1363 15.6069C46.7406 15.0213 47.5454 14.6936 48.3831 14.692L48.4728 14.693C49.4833 14.693 50.2764 14.9974 50.8518 15.6066C51.1422 15.9232 51.3679 16.2944 51.5159 16.6991C51.664 17.1038 51.7316 17.534 51.7147 17.965C51.7323 18.4095 51.6613 18.8529 51.5058 19.2691C51.3504 19.6852 51.1136 20.0656 50.8096 20.3876C50.5027 20.6929 50.1384 20.9332 49.7381 21.0943C49.3377 21.2553 48.9096 21.3339 48.4787 21.3254L48.3887 21.3222ZM45.4837 44.227V23.9144C45.4837 23.6596 45.5955 23.5319 45.8205 23.5319H50.9991C51.2234 23.5319 51.3357 23.6593 51.3359 23.9144V44.227C51.3359 44.5105 51.2237 44.6523 50.9991 44.6521H45.8627C45.6234 44.6521 45.4974 44.5249 45.4849 44.2705L45.4837 44.227Z" fill="#FF9A00"/>
<g clip-path="url(#clip1_198_206)">
<path d="M55.6382 1.48291H14.2241C8.53947 1.48291 3.93115 6.12572 3.93115 11.8529V52.0153C3.93115 57.7425 8.53947 62.3853 14.2241 62.3853H55.6382C61.3228 62.3853 65.9312 57.7425 65.9312 52.0153V11.8529C65.9312 6.12572 61.3228 1.48291 55.6382 1.48291Z" fill="#001E36"/>
<path d="M17.8918 44.1915V17.4154C17.8918 17.2202 17.9752 17.1221 18.1415 17.1221L18.4048 17.1214L18.8548 17.1165L19.4801 17.104L21.575 17.0594L23.8213 17.0174C24.6113 17.0037 25.3946 16.9964 26.171 16.9964C28.2781 16.9964 30.0526 17.2619 31.4948 17.7926C32.7957 18.2359 33.9822 18.966 34.9678 19.9296C35.8033 20.7648 36.4489 21.7728 36.8602 22.8839C37.2493 23.9651 37.4464 25.1069 37.4427 26.257C37.4427 28.4922 36.9295 30.3359 35.9036 31.7882C34.9001 33.205 33.5005 34.2886 31.8833 34.9007L31.7445 34.9519C30.0557 35.5865 28.1855 35.8159 26.1345 35.8303L25.8157 35.8313L25.3427 35.8288L25.1042 35.8254L24.8383 35.8191L24.6779 35.8127L24.5806 35.8076L24.3411 35.7988L24.0483 35.7927L23.6075 35.7896L23.5094 35.7893V44.1495C23.5167 44.2007 23.512 44.253 23.4958 44.3021C23.4795 44.3512 23.4522 44.3958 23.4158 44.4325C23.3795 44.4691 23.3352 44.4966 23.2864 44.513C23.2377 44.5294 23.1858 44.5341 23.135 44.5267H18.1832C17.9887 44.5267 17.8918 44.4154 17.8918 44.1915ZM23.5096 22.1504V30.8837C23.8416 30.9107 24.1744 30.9247 24.5074 30.9257H25.8802C26.8266 30.9225 27.7675 30.7805 28.6733 30.5043L28.854 30.4474C29.678 30.2008 30.4144 29.7208 30.9753 29.0644C31.4965 28.4452 31.7665 27.5919 31.7852 26.5044L31.7864 26.3826C31.8082 25.5721 31.5989 24.7722 31.1831 24.078C30.7461 23.4067 30.1144 22.8872 29.374 22.5904C28.4071 22.2118 27.3744 22.0337 26.3376 22.0667L25.8102 22.0682L25.4774 22.0711L25.1599 22.0753L24.7118 22.0841L24.3849 22.0933L24.2151 22.0997L23.9882 22.1104L23.7949 22.1224L23.6847 22.1312L23.5895 22.1404L23.5477 22.1453L23.5096 22.1504ZM53.5239 29.2957C52.7984 28.9201 52.0288 28.6379 51.2333 28.4559L51.0493 28.4159C50.1741 28.2135 49.2807 28.1021 48.383 28.0833L48.1587 28.0806C47.6325 28.0663 47.107 28.1298 46.5991 28.2692C46.2757 28.3417 45.9882 28.5272 45.7877 28.7929C45.6522 29.0054 45.5801 29.2527 45.5799 29.5053C45.5875 29.7503 45.6752 29.986 45.8294 30.1756C46.0501 30.4357 46.3155 30.6536 46.6129 30.819L46.703 30.8671C47.296 31.1888 47.907 31.4756 48.5329 31.726C49.9288 32.1968 51.2626 32.837 52.5048 33.6326C53.3512 34.1708 54.0516 34.9124 54.543 35.7908C54.9562 36.6224 55.1631 37.5425 55.1461 38.4723C55.171 39.7003 54.8227 40.9067 54.1478 41.9296C53.4253 42.9678 52.4219 43.7749 51.2571 44.2549C50.0372 44.7951 48.539 45.074 46.7628 45.0923L46.5782 45.0933C45.4771 45.1045 44.3775 45.0074 43.2951 44.8034L43.0636 44.758C42.1523 44.5896 41.2652 44.3081 40.4225 43.9199C40.3379 43.8758 40.2663 43.8099 40.2152 43.7289C40.164 43.6479 40.1351 43.5547 40.1314 43.4587V38.8915C40.1265 38.8472 40.1335 38.8023 40.1519 38.7617C40.1702 38.7211 40.1991 38.6863 40.2356 38.6609C40.2713 38.6406 40.3123 38.6317 40.3531 38.6355C40.394 38.6392 40.4327 38.6554 40.4642 38.6819C41.4593 39.2731 42.5397 39.7043 43.6667 39.96C44.66 40.2109 45.679 40.3445 46.703 40.3582C47.6732 40.3582 48.3871 40.2323 48.8449 39.981C49.0516 39.8857 49.2264 39.732 49.3482 39.5387C49.47 39.3453 49.5336 39.1205 49.5312 38.8915C49.5312 38.5289 49.3232 38.1795 48.9073 37.844C48.733 37.7035 48.4828 37.5505 48.1573 37.3853L48.0016 37.3082L47.8354 37.2294L47.7482 37.1894L47.5656 37.1079C47.5339 37.094 47.5022 37.0801 47.4704 37.0664L47.2719 36.9825L47.1684 36.9398L46.9539 36.8532L46.8425 36.8092L46.6117 36.7197L46.3702 36.6287C45.0642 36.1707 43.8259 35.5364 42.6892 34.743C41.8762 34.1734 41.2068 33.42 40.7345 32.5431C40.3255 31.7174 40.1187 30.805 40.1314 29.8823C40.1291 28.7736 40.4314 27.6859 41.0048 26.7396C41.6587 25.6977 42.5974 24.8681 43.7083 24.3513C44.9282 23.7372 46.453 23.4297 48.2832 23.4292C49.3552 23.4206 50.4261 23.4977 51.4859 23.6598C52.2533 23.7579 53.0036 23.9623 53.7155 24.2674C53.8301 24.3006 53.9223 24.3857 53.9649 24.498C53.9933 24.6002 54.0071 24.7059 54.0066 24.8122V29.0444C54.0127 29.1445 53.9649 29.2403 53.8819 29.2957C53.8263 29.3236 53.765 29.3381 53.7029 29.3381C53.6408 29.3381 53.5795 29.3236 53.5239 29.2957Z" fill="#31A8FF"/>
</g>
</g>
</g>
<defs>
<filter id="filter0_d_198_206" x="0" y="0" width="70.7587" height="69.8621" filterUnits="userSpaceOnUse" color-interpolation-filters="sRGB">
<feFlood flood-opacity="0" result="BackgroundImageFix"/>
<feColorMatrix in="SourceAlpha" type="matrix" values="0 0 0 0 0 0 0 0 0 0 0 0 0 0 0 0 0 0 127 0" result="hardAlpha"/>
<feOffset dy="3"/>
<feGaussianBlur stdDeviation="2"/>
<feComposite in2="hardAlpha" operator="out"/>
<feColorMatrix type="matrix" values="0 0 0 0 0 0 0 0 0 0 0 0 0 0 0 0 0 0 0.2 0"/>
<feBlend mode="normal" in2="BackgroundImageFix" result="effect1_dropShadow_198_206"/>
<feBlend mode="normal" in="SourceGraphic" in2="effect1_dropShadow_198_206" result="shape"/>
</filter>
<clipPath id="clip0_198_206">
<rect x="4" y="1" width="62.7586" height="61.8621" rx="20" fill="white"/>
</clipPath>
<clipPath id="clip1_198_206">
<rect width="62" height="61" fill="white" transform="translate(3.93115 1.48291)"/>
</clipPath>
</defs>
</svg>
