<svg width="71" height="70" viewBox="0 0 71 70" fill="none" xmlns="http://www.w3.org/2000/svg">
<g filter="url(#filter0_d_198_230)">
<g clip-path="url(#clip0_198_230)">
<path d="M56.3397 1H14.4189C8.66471 1 4 5.70842 4 11.5165V52.2465C4 58.0547 8.66471 62.7631 14.4189 62.7631H56.3397C62.0939 62.7631 66.7586 58.0547 66.7586 52.2465V11.5165C66.7586 5.70842 62.0939 1 56.3397 1Z" fill="#330000"/>
<path d="M34.4119 38.0653H24.6868L22.708 44.2696C22.681 44.3827 22.6158 44.4829 22.5236 44.5527C22.4314 44.6225 22.3179 44.6577 22.2027 44.6521H17.2769C16.9962 44.6521 16.8979 44.4962 16.9822 44.1844L25.4024 19.7074C25.4865 19.4525 25.5708 19.1622 25.6549 18.8363C25.7652 18.2692 25.8216 17.6931 25.8233 17.1153C25.8176 17.0749 25.8213 17.0337 25.834 16.995C25.8468 16.9562 25.8684 16.921 25.897 16.8922C25.9255 16.8633 25.9604 16.8415 25.9988 16.8286C26.0371 16.8156 26.078 16.8119 26.118 16.8177H32.8121C33.0082 16.8177 33.1205 16.8887 33.1489 17.0305L42.7056 44.227C42.79 44.5106 42.7056 44.6524 42.4531 44.6521H36.9799C36.8859 44.6626 36.7913 44.6383 36.7139 44.5835C36.6364 44.5288 36.5813 44.4474 36.559 44.3547L34.4119 38.0653ZM26.2023 32.711H32.8543L32.7594 32.395L32.6071 31.8947L32.4985 31.5433L32.3252 30.99L31.9568 29.8253L31.6327 28.7927L30.7911 26.1029C30.5816 25.4343 30.3806 24.763 30.188 24.0892L30.034 23.5423L29.8541 22.8957L29.5795 21.8936L29.5281 21.7048H29.4861C29.2755 22.7248 29.019 23.7346 28.7173 24.7311L28.0927 26.7591L27.749 27.8796L27.4021 29.0139C27.3393 29.2188 27.2771 29.4214 27.2146 29.6216L27.0282 30.215L26.8429 30.7945L26.6586 31.3597L26.4752 31.9108C26.4144 32.0921 26.3536 32.271 26.293 32.4477L26.2023 32.711ZM48.3887 21.3222C47.9593 21.3396 47.5312 21.2653 47.1322 21.1042C46.7332 20.9431 46.3723 20.6989 46.0733 20.3873C45.775 20.0623 45.5434 19.681 45.3916 19.2653C45.2399 18.8496 45.171 18.4077 45.189 17.9651C45.1738 17.5269 45.2502 17.0903 45.4135 16.684C45.5767 16.2777 45.823 15.9106 46.1363 15.6069C46.7406 15.0213 47.5454 14.6937 48.3831 14.6921L48.4728 14.6931C49.4833 14.6931 50.2764 14.9974 50.8518 15.6066C51.1422 15.9232 51.3679 16.2944 51.5159 16.6991C51.664 17.1038 51.7316 17.534 51.7147 17.9651C51.7323 18.4095 51.6613 18.8529 51.5058 19.2691C51.3504 19.6853 51.1136 20.0656 50.8096 20.3876C50.5027 20.6929 50.1384 20.9332 49.7381 21.0943C49.3377 21.2553 48.9096 21.3339 48.4787 21.3254L48.3887 21.3222ZM45.4837 44.227V23.9145C45.4837 23.6596 45.5955 23.5319 45.8205 23.5319H50.9991C51.2234 23.5319 51.3357 23.6594 51.3359 23.9145V44.227C51.3359 44.5106 51.2237 44.6524 50.9991 44.6521H45.8627C45.6234 44.6521 45.4974 44.5249 45.4849 44.2706L45.4837 44.227Z" fill="#FF9A00"/>
<g clip-path="url(#clip1_198_230)">
<path d="M55.6382 1.48291H14.2241C8.53947 1.48291 3.93115 6.12572 3.93115 11.8529V52.0153C3.93115 57.7425 8.53947 62.3853 14.2241 62.3853H55.6382C61.3228 62.3853 65.9312 57.7425 65.9312 52.0153V11.8529C65.9312 6.12572 61.3228 1.48291 55.6382 1.48291Z" fill="#49021F"/>
<path d="M26.4471 17.4154V44.1075C26.4471 44.3871 26.3224 44.5267 26.0727 44.5267H21.04C20.818 44.5267 20.707 44.3869 20.7075 44.1075V17.4154C20.7075 17.1921 20.8322 17.0804 21.0817 17.0801H26.1144C26.1567 17.0741 26.1998 17.0774 26.2407 17.0898C26.2816 17.1023 26.3194 17.1236 26.3513 17.1522C26.3832 17.1808 26.4086 17.2161 26.4256 17.2556C26.4426 17.2951 26.4508 17.3379 26.4498 17.381L26.4471 17.4154ZM41.6047 44.943L41.3368 44.9456C39.4225 44.975 37.5257 44.5742 35.7844 43.7725C34.1622 43.0161 32.8061 41.7813 31.8956 40.2316C30.9755 38.6922 30.5045 36.7733 30.4822 34.4756L30.4815 34.3024C30.4659 32.3792 30.9538 30.4858 31.8959 28.8131C32.8402 27.155 34.2175 25.7893 35.8781 24.8644L36.0133 24.7903C37.8152 23.7847 39.9919 23.2819 42.5431 23.2819L42.5969 23.2821L42.7163 23.2848L42.8515 23.2902L43.0023 23.298L43.1687 23.3085L43.3506 23.3219L43.7616 23.3558L43.874 23.3655V15.111C43.874 14.9158 43.9573 14.8175 44.1234 14.8175H49.3641C49.398 14.8126 49.4326 14.8157 49.465 14.8266C49.4975 14.8375 49.527 14.8559 49.5513 14.8803C49.5755 14.9047 49.5937 14.9344 49.6045 14.9671C49.6153 14.9999 49.6184 15.0347 49.6136 15.0688V39.8336C49.6153 40.351 49.6361 40.8681 49.6761 41.384L49.7153 41.9242L49.7499 42.4271L49.78 42.8924C49.7851 42.9794 49.764 43.066 49.7195 43.1408C49.675 43.2156 49.6091 43.2751 49.5305 43.3116C48.1785 43.8796 46.7703 44.3009 45.3298 44.5684C44.1006 44.797 42.8547 44.9223 41.6049 44.943H41.6047ZM43.874 39.7497V28.3102C43.6492 28.2489 43.4197 28.2068 43.1878 28.1845C42.9045 28.1558 42.6199 28.1418 42.3351 28.1426C41.3257 28.1326 40.3283 28.3622 39.4238 28.8131C38.5426 29.2544 37.7902 29.9186 37.2402 30.7407C36.6716 31.5786 36.3872 32.6822 36.3875 34.051C36.3672 34.9644 36.5153 35.8736 36.8241 36.7326C37.0755 37.4248 37.4728 38.0539 37.9888 38.5765C38.4827 39.0572 39.0808 39.4158 39.7357 39.624C40.4275 39.8497 41.1505 39.9629 41.8776 39.9595C42.2656 39.9595 42.626 39.9453 42.959 39.9173C43.2246 39.8972 43.4878 39.8531 43.7456 39.7855L43.874 39.7497Z" fill="#FF3366"/>
</g>
</g>
</g>
<defs>
<filter id="filter0_d_198_230" x="0" y="0" width="70.7587" height="69.8621" filterUnits="userSpaceOnUse" color-interpolation-filters="sRGB">
<feFlood flood-opacity="0" result="BackgroundImageFix"/>
<feColorMatrix in="SourceAlpha" type="matrix" values="0 0 0 0 0 0 0 0 0 0 0 0 0 0 0 0 0 0 127 0" result="hardAlpha"/>
<feOffset dy="3"/>
<feGaussianBlur stdDeviation="2"/>
<feComposite in2="hardAlpha" operator="out"/>
<feColorMatrix type="matrix" values="0 0 0 0 0 0 0 0 0 0 0 0 0 0 0 0 0 0 0.2 0"/>
<feBlend mode="normal" in2="BackgroundImageFix" result="effect1_dropShadow_198_230"/>
<feBlend mode="normal" in="SourceGraphic" in2="effect1_dropShadow_198_230" result="shape"/>
</filter>
<clipPath id="clip0_198_230">
<rect x="4" y="1" width="62.7586" height="61.8621" rx="20" fill="white"/>
</clipPath>
<clipPath id="clip1_198_230">
<rect width="62" height="61" fill="white" transform="translate(3.93115 1.48291)"/>
</clipPath>
</defs>
</svg>
