<svg width="16" height="20" viewBox="0 0 16 20" fill="none" xmlns="http://www.w3.org/2000/svg">
<path d="M4.36 4.57285C4.4 5.26277 4.5 5.93719 4.66 6.5806L3.86 7.51083C3.58667 6.5806 3.41333 5.5961 3.35333 4.57285H4.36ZM10.9333 13.8907C11.5 14.0767 12.08 14.193 12.6667 14.2395V15.3946C11.7867 15.3248 10.94 15.1232 10.1333 14.8132L10.9333 13.8907ZM5 3.02246H2.66667C2.3 3.02246 2 3.3713 2 3.79765C2 11.0767 7.07333 16.9759 13.3333 16.9759C13.7 16.9759 14 16.6271 14 16.2008V13.4953C14 13.069 13.7 12.7201 13.3333 12.7201C12.5067 12.7201 11.7 12.5651 10.9533 12.2783C10.8872 12.2504 10.817 12.2372 10.7467 12.2395C10.5733 12.2395 10.4067 12.317 10.2733 12.4643L8.80667 14.1697C6.91695 13.046 5.37974 11.2586 4.41333 9.06122L5.88 7.35579C6.06667 7.13874 6.12 6.83641 6.04667 6.5651C5.79377 5.67212 5.66548 4.73781 5.66667 3.79765C5.66667 3.3713 5.36667 3.02246 5 3.02246Z" fill="#9CA3AF"/>
</svg>
