<svg width="16" height="17" viewBox="0 0 16 17" fill="none" xmlns="http://www.w3.org/2000/svg">
<path d="M8 11.0973C8.648 11.0973 9.2 10.8573 9.688 10.3853C10.16 9.89727 10.4 9.34527 10.4 8.69727C10.4 8.04927 10.16 7.49727 9.688 7.00927C9.2 6.53727 8.648 6.29727 8 6.29727C7.352 6.29727 6.8 6.53727 6.312 7.00927C5.84 7.49727 5.6 8.04927 5.6 8.69727C5.6 9.34527 5.84 9.89727 6.312 10.3853C6.8 10.8573 7.352 11.0973 8 11.0973ZM8 0.697266C10.2 0.697266 12.08 1.49727 13.64 3.05727C15.2 4.61727 16 6.49727 16 8.69727V9.85727C16 10.6573 15.72 11.3373 15.2 11.8973C14.64 12.4333 14 12.6973 13.2 12.6973C12.24 12.6973 11.448 12.2973 10.848 11.4973C10.048 12.2973 9.104 12.6973 8 12.6973C6.904 12.6973 5.96 12.2973 5.168 11.5293C4.4 10.7373 4 9.80127 4 8.69727C4 7.60127 4.4 6.65727 5.168 5.86527C5.96 5.09727 6.904 4.69727 8 4.69727C9.104 4.69727 10.04 5.09727 10.832 5.86527C11.6 6.65727 12 7.60127 12 8.69727V9.85727C12 10.1853 12.128 10.4733 12.368 10.7213C12.608 10.9693 12.888 11.0973 13.2 11.0973C13.536 11.0973 13.816 10.9693 14.056 10.7213C14.296 10.4733 14.4 10.1853 14.4 9.85727V8.69727C14.4 6.94527 13.784 5.44127 12.52 4.17727C11.256 2.91327 9.752 2.29727 8 2.29727C6.248 2.29727 4.744 2.91327 3.48 4.17727C2.216 5.44127 1.6 6.94527 1.6 8.69727C1.6 10.4493 2.216 11.9533 3.48 13.2173C4.744 14.4813 6.248 15.0973 8 15.0973H12V16.6973H8C5.8 16.6973 3.92 15.8973 2.36 14.3373C0.8 12.7773 0 10.8973 0 8.69727C0 6.49727 0.8 4.61727 2.36 3.05727C3.92 1.49727 5.8 0.697266 8 0.697266Z" fill="#9CA3AF"/>
</svg>
