<svg width="12" height="14" viewBox="0 0 12 14" fill="none" xmlns="http://www.w3.org/2000/svg">
<path d="M2.36 1.57285C2.4 2.26277 2.5 2.93719 2.66 3.5806L1.86 4.51083C1.58667 3.5806 1.41333 2.5961 1.35333 1.57285H2.36ZM8.93333 10.8907C9.5 11.0767 10.08 11.193 10.6667 11.2395V12.3946C9.78667 12.3248 8.94 12.1232 8.13333 11.8132L8.93333 10.8907ZM3 0.0224609H0.666667C0.3 0.0224609 0 0.371298 0 0.797655C0 8.07672 5.07333 13.9759 11.3333 13.9759C11.7 13.9759 12 13.6271 12 13.2008V10.4953C12 10.069 11.7 9.72013 11.3333 9.72013C10.5067 9.72013 9.7 9.5651 8.95333 9.27827C8.88715 9.25036 8.81704 9.23721 8.74667 9.23951C8.57333 9.23951 8.40667 9.31703 8.27333 9.46432L6.80667 11.1697C4.91695 10.046 3.37974 8.25856 2.41333 6.06122L3.88 4.35579C4.06667 4.13874 4.12 3.83641 4.04667 3.5651C3.79377 2.67212 3.66548 1.73781 3.66667 0.797655C3.66667 0.371298 3.36667 0.0224609 3 0.0224609Z" fill="white"/>
</svg>
